<?xml version="1.0" encoding="UTF-8" standalone="no"?><svg xmlns="http://www.w3.org/2000/svg" xmlns:xlink="http://www.w3.org/1999/xlink" fill="#000000" height="947.3" preserveAspectRatio="xMidYMid meet" version="1" viewBox="130.0 23.0 724.0 947.3" width="724" zoomAndPan="magnify"><defs><clipPath id="a"><path d="M485.69,23h0a32.52,32.52,0,0,1,32.52,32.52V970.35a0,0,0,0,1,0,0h-65a0,0,0,0,1,0,0V55.52A32.52,32.52,0,0,1,485.69,23Z" fill="#b05c1b"/></clipPath></defs><g data-name="Layer 4"><g id="change1_1"><path d="M485.69,23h0a32.52,32.52,0,0,1,32.52,32.52V970.35a0,0,0,0,1,0,0h-65a0,0,0,0,1,0,0V55.52A32.52,32.52,0,0,1,485.69,23Z" fill="#b05c1b"/></g><g clip-path="url(#a)" id="change2_1"><path d="M437 682H535V746H437z" opacity="0.3"/><path d="M437 468H535V532H437z" opacity="0.3" transform="rotate(5.68 486.153 500.17)"/><path d="M437 227H535V291H437z" opacity="0.3" transform="rotate(-7.55 485.987 259.022)"/></g><g id="change3_1"><path d="M190.9,143.41,230,313s455.68-82.35,559.48-86.16L854,143.41v-14.7L764.56,53.45S516.48,147.21,190.9,143.41Z" fill="#b05c1b"/></g><g id="change4_1"><path d="M190.9,143.41s507.58-70.93,573.66-90L785,72.82,761.45,85.63,738.27,87.7,702.63,114l36-21.45h24.91l17.65-9.35,19,4.5,13.27,10.73-75.9,19.37,79.06-14.87,10.9,8.65L800.2,117.8l-17.3,12.11-29.76.7,35,5.19,21.11-14.19,25.95-3.11,10.72,10.38-40.13,3.8,40.13,3.63-25.6,31H770.4l-28.67,8.31-58.82-5.54,61.58,13.15,29.07-8.31,32.87-.69,5.77,9-9.58,13.15H774.2l-41.82,11.41,41.18-5.53,23.53,1.38-12.81,13.84s-310.36,39.79-556,87.89L220.13,272l179.92-35.64L218.75,264l-4.15-18.34L244,247.73l35.46-21.63,70.41.17-71.62-5.19-34.77,22.67L221.34,242l-12.11-17.65-3.11-15.57,55.53-.17L204,200.15l-7.61-32.52,36.68,11.07,28.72-24.22L358.88,173l-99-26-28,24.22-37-9.34Z" fill="#cf7e49"/></g><g id="change3_2"><path d="M214.42,318.14,130,396.68v14.51l74,82.37s406.55,17.64,587.51,37l17-95.5-11.76-97.22S476.69,407.4,214.42,318.14Z" fill="#b05c1b"/></g><g id="change4_2"><path d="M214.42,318.14l-43.07,46.53,73,6.23s71.62-2.77,137.71,9c0,0-94.8-6.23-137.71-2.42l-77.5-8.31L162,374.71,190.9,378l-33,1.86-18.43,16.26,55,1.73,64.35,10-69.54-6.57-49.83,2,41.52,44h41.52l48.1,11.07,32.18-6.23L270.3,463.28l-47.4-10-35.82,2.94,23.36,26.12s195.15,6.92,301.37,14.54S793.4,520.14,793.4,520.14l5.88-33.09-53.92-3s-99.65.35-101,0-32.18-11.76-32.18-11.76l33.22,8,97.91-2.08,57.65-.41,2-11.49s-73.18-4-74.56-4.36l-38.76-9.69,42.91,5.88,71.38,2.71,1.27-7.18-19.71,0,19.71-5.47,2-5.52-72.88-3.2-57.78.35-30.8,4.49,30.8-11.07h58.12l61.59,1.73,10.95-6.62-3.53-33.42-29.22-.09-34.94,8.3-29.41-9.69,29.41,4.5,34.6-12.11,28.27-1.52L798,348l-58.15,18,57.64-22.25-1.93-9.58S552.29,354.64,214.42,318.14Z" fill="#cf7e49"/></g><g id="change3_3"><path d="M211.66,537.15l10.2,187,509.49-7.79,65.74-79.23-3.12-17-66.43-79.58S497.1,683.17,211.66,537.15Z" fill="#b05c1b"/></g><g id="change4_3"><path d="M211.66,537.15l2.41,43.19L285.87,592l-71.42-5,2.55,45.6,41-3.44,58.27,8,56.58-10.38L317,645.28l-57.31-8.13-42,8.13.57,10.17h68.45l-67.82,11.32.83,14.87h45l49.82,18.73L362,674l-45,33.91L264.07,686.8l-36.33,1.73-7,11.84.43,7.54,508-7.54,17.86-21.18-52.59,2.42,56.74-10,32.88-34.43H747.81l-45.7,15.74-59.17-20.07,57.44,13.5,44.89-17.13h38.85L763.8,583.85l-37.12,15.76,31.77-22.14L737.67,552.7l-26.22,19.23-24.56,36.33H647.44l35.29-5.19L708,564.32l19.55-23.71S410.78,572.27,211.66,537.15Z" fill="#cf7e49"/></g><g id="change1_2"><circle cx="482.92" cy="120.23" fill="#b05c1b" r="8.65"/></g><g id="change1_3"><circle cx="482.92" cy="240.98" fill="#b05c1b" r="8.65"/></g><g id="change1_4"><circle cx="482.92" cy="359.31" fill="#b05c1b" r="8.65"/></g><g id="change1_5"><circle cx="482.92" cy="474.18" fill="#b05c1b" r="8.65"/></g><g id="change1_6"><circle cx="482.92" cy="577.64" fill="#b05c1b" r="8.65"/></g><g id="change1_7"><circle cx="482.92" cy="682.47" fill="#b05c1b" r="8.65"/></g></g></svg>